<?xml version="1.0" encoding="UTF-8"?>
<svg width="12px" height="12px" viewBox="0 0 12 12" version="1.1" xmlns="http://www.w3.org/2000/svg" xmlns:xlink="http://www.w3.org/1999/xlink">
    <!-- Generator: sketchtool 54.1 (76490) - https://sketchapp.com -->
    <title>E21668E3-99EB-4A07-89DB-4E73968E2F30@3x</title>
    <desc>Created with sketchtool.</desc>
    <g id="Page-1" stroke="none" stroke-width="1" fill="none" fill-rule="evenodd">
        <g id="Assets_Authentication" transform="translate(-214.000000, -38.000000)" fill="#000000">
            <g id="arrow_down" transform="translate(214.000000, 38.000000)">
                <g id="navigation/arrow-down_12">
                    <g id="arrow-down_12" transform="translate(1.000000, 3.000000)">
                        <path d="M2.50048718,7.99937642 C2.36348718,7.99937642 2.22748718,7.94337642 2.12848718,7.83437642 C1.94348718,7.62837642 1.96048718,7.31237642 2.16548718,7.12737642 L6.75248718,2.99937642 L2.16548718,-1.12862358 C1.96048718,-1.31362358 1.94348718,-1.62962358 2.12848718,-1.83562358 C2.31348718,-2.03962358 2.62948718,-2.05662358 2.83448718,-1.87262358 L7.83448718,2.62737642 C7.94048718,2.72337642 8.00048718,2.85737642 8.00048718,2.99937642 C8.00048718,3.14137642 7.94048718,3.27537642 7.83448718,3.37137642 L2.83448718,7.87137642 C2.73948718,7.95737642 2.61948718,7.99937642 2.50048718,7.99937642" id="fill" transform="translate(5.000262, 2.999524) scale(-1, 1) rotate(90.000000) translate(-5.000262, -2.999524) "></path>
                    </g>
                </g>
            </g>
        </g>
    </g>
</svg>